# Blender v2.74 (sub 0) OBJ File: ''
# www.blender.org
mtllib arrow.mtl
o Cone
v 0.000000 17.694534 -2.434715
v 0.000000 22.563965 0.000000
v 0.474989 17.694534 -2.387932
v 0.931725 17.694534 -2.249383
v 1.352655 17.694534 -2.024391
v 1.721603 17.694534 -1.721603
v 2.024391 17.694534 -1.352655
v 2.249383 17.694534 -0.931725
v 2.387932 17.694534 -0.474989
v 2.434715 17.694534 -0.000000
v 2.387932 17.694534 0.474989
v 2.249383 17.694534 0.931725
v 2.024391 17.694534 1.352655
v 1.721603 17.694534 1.721603
v 1.352655 17.694534 2.024391
v 0.931725 17.694534 2.249383
v 0.474989 17.694534 2.387932
v -0.000001 17.694534 2.434715
v -0.474990 17.694534 2.387932
v -0.931726 17.694534 2.249382
v -1.352656 17.694534 2.024390
v -1.721604 17.694534 1.721602
v -2.024392 17.694534 1.352654
v -2.249384 17.694534 0.931723
v -2.387933 17.694534 0.474987
v -2.434715 17.694534 -0.000002
v -2.387932 17.694534 -0.474992
v -2.249382 17.694534 -0.931727
v -2.024390 17.694534 -1.352657
v -1.721601 17.694534 -1.721605
v -1.352652 17.694534 -2.024393
v -0.931722 17.694534 -2.249384
v -0.474986 17.694534 -2.387933
vn -0.330700 -0.503300 -0.798300
vn 0.000000 1.000000 0.000000
vn -0.168600 -0.503300 -0.847500
vn 0.000000 -0.503300 -0.864100
vn 0.168600 -0.503300 -0.847500
vn -0.480100 -0.503300 -0.718500
vn -0.611000 -0.503300 -0.611000
vn -0.718500 -0.503300 -0.480100
vn -0.798300 -0.503300 -0.330700
vn -0.847500 -0.503300 -0.168600
vn -0.864100 -0.503300 0.000000
vn -0.847500 -0.503300 0.168600
vn -0.798300 -0.503300 0.330700
vn -0.718500 -0.503300 0.480100
vn -0.611000 -0.503300 0.611000
vn -0.480100 -0.503300 0.718500
vn -0.330700 -0.503300 0.798300
vn -0.168600 -0.503300 0.847500
vn 0.000000 -0.503300 0.864100
vn 0.168600 -0.503300 0.847500
vn 0.330700 -0.503300 0.798300
vn 0.480100 -0.503300 0.718500
vn 0.611000 -0.503300 0.611000
vn 0.718500 -0.503300 0.480100
vn 0.798300 -0.503300 0.330700
vn 0.847500 -0.503300 0.168600
vn 0.864100 -0.503300 0.000000
vn 0.847500 -0.503300 -0.168600
vn 0.798300 -0.503300 -0.330700
vn 0.718500 -0.503300 -0.480100
vn 0.611000 -0.503300 -0.611000
vn 0.480100 -0.503300 -0.718500
vn 0.330700 -0.503300 -0.798300
usemtl Material.001
s 1
f 32//1 2//2 33//3
f 1//4 2//2 3//5
f 31//6 2//2 32//1
f 30//7 2//2 31//6
f 29//8 2//2 30//7
f 28//9 2//2 29//8
f 27//10 2//2 28//9
f 26//11 2//2 27//10
f 25//12 2//2 26//11
f 24//13 2//2 25//12
f 23//14 2//2 24//13
f 22//15 2//2 23//14
f 21//16 2//2 22//15
f 20//17 2//2 21//16
f 19//18 2//2 20//17
f 18//19 2//2 19//18
f 17//20 2//2 18//19
f 16//21 2//2 17//20
f 15//22 2//2 16//21
f 14//23 2//2 15//22
f 13//24 2//2 14//23
f 12//25 2//2 13//24
f 11//26 2//2 12//25
f 10//27 2//2 11//26
f 9//28 2//2 10//27
f 8//29 2//2 9//28
f 7//30 2//2 8//29
f 6//31 2//2 7//30
f 5//32 2//2 6//31
f 4//33 2//2 5//32
f 33//3 2//2 1//4
f 3//5 2//2 4//33
f 1//4 3//5 4//33 5//32 6//31 7//30 8//29 9//28 10//27 11//26 12//25 13//24 14//23 15//22 16//21 17//20 18//19 19//18 20//17 21//16 22//15 23//14 24//13 25//12 26//11 27//10 28//9 29//8 30//7 31//6 32//1 33//3
o Cylinder
v 0.000000 0.089891 -1.000000
v 0.000000 17.846678 -1.000000
v 0.195090 0.089891 -0.980785
v 0.195090 17.846678 -0.980785
v 0.382683 0.089891 -0.923880
v 0.382683 17.846678 -0.923880
v 0.555570 0.089891 -0.831470
v 0.555570 17.846678 -0.831470
v 0.707107 0.089891 -0.707107
v 0.707107 17.846678 -0.707107
v 0.831470 0.089891 -0.555570
v 0.831470 17.846678 -0.555570
v 0.923880 0.089891 -0.382683
v 0.923880 17.846678 -0.382683
v 0.980785 0.089891 -0.195090
v 0.980785 17.846678 -0.195090
v 1.000000 0.089891 -0.000000
v 1.000000 17.846678 -0.000000
v 0.980785 0.089891 0.195090
v 0.980785 17.846678 0.195090
v 0.923880 0.089891 0.382683
v 0.923880 17.846678 0.382683
v 0.831470 0.089891 0.555570
v 0.831470 17.846678 0.555570
v 0.707107 0.089891 0.707107
v 0.707107 17.846678 0.707107
v 0.555570 0.089891 0.831470
v 0.555570 17.846678 0.831470
v 0.382683 0.089891 0.923880
v 0.382683 17.846678 0.923880
v 0.195090 0.089891 0.980785
v 0.195090 17.846678 0.980785
v -0.000000 0.089891 1.000000
v -0.000000 17.846678 1.000000
v -0.195091 0.089891 0.980785
v -0.195091 17.846678 0.980785
v -0.382684 0.089891 0.923879
v -0.382684 17.846678 0.923879
v -0.555571 0.089891 0.831469
v -0.555571 17.846678 0.831469
v -0.707107 0.089891 0.707106
v -0.707107 17.846678 0.707106
v -0.831470 0.089891 0.555570
v -0.831470 17.846678 0.555570
v -0.923880 0.089891 0.382683
v -0.923880 17.846678 0.382683
v -0.980785 0.089891 0.195089
v -0.980785 17.846678 0.195089
v -1.000000 0.089891 -0.000001
v -1.000000 17.846678 -0.000001
v -0.980785 0.089891 -0.195091
v -0.980785 17.846678 -0.195091
v -0.923879 0.089891 -0.382684
v -0.923879 17.846678 -0.382684
v -0.831469 0.089891 -0.555571
v -0.831469 17.846678 -0.555571
v -0.707106 0.089891 -0.707108
v -0.707106 17.846678 -0.707108
v -0.555569 0.089891 -0.831470
v -0.555569 17.846678 -0.831470
v -0.382682 0.089891 -0.923880
v -0.382682 17.846678 -0.923880
v -0.195089 0.089891 -0.980786
v -0.195089 17.846678 -0.980786
vn 0.000000 -0.685700 -0.727900
vn 0.000000 0.685700 -0.727900
vn 0.142000 0.685700 -0.713900
vn 0.142000 -0.685700 -0.713900
vn 0.278500 0.685700 -0.672500
vn 0.278500 -0.685700 -0.672500
vn 0.404400 0.685700 -0.605200
vn 0.404400 -0.685700 -0.605200
vn 0.514700 0.685700 -0.514700
vn 0.514700 -0.685700 -0.514700
vn 0.605200 0.685700 -0.404400
vn 0.605200 -0.685700 -0.404400
vn 0.672500 0.685700 -0.278500
vn 0.672500 -0.685700 -0.278500
vn 0.713900 0.685700 -0.142000
vn 0.713900 -0.685700 -0.142000
vn 0.727900 0.685700 0.000000
vn 0.727900 -0.685700 0.000000
vn 0.713900 0.685700 0.142000
vn 0.713900 -0.685700 0.142000
vn 0.672500 0.685700 0.278500
vn 0.672500 -0.685700 0.278500
vn 0.605200 0.685700 0.404400
vn 0.605200 -0.685700 0.404400
vn 0.514700 0.685700 0.514700
vn 0.514700 -0.685700 0.514700
vn 0.404400 0.685700 0.605200
vn 0.404400 -0.685700 0.605200
vn 0.278500 0.685700 0.672500
vn 0.278500 -0.685700 0.672500
vn 0.142000 0.685700 0.713900
vn 0.142000 -0.685700 0.713900
vn 0.000000 0.685700 0.727900
vn 0.000000 -0.685700 0.727900
vn -0.142000 0.685700 0.713900
vn -0.142000 -0.685700 0.713900
vn -0.278500 0.685700 0.672500
vn -0.278500 -0.685700 0.672500
vn -0.404400 0.685700 0.605200
vn -0.404400 -0.685700 0.605200
vn -0.514700 0.685700 0.514700
vn -0.514700 -0.685700 0.514700
vn -0.605200 0.685700 0.404400
vn -0.605200 -0.685700 0.404400
vn -0.672500 0.685700 0.278500
vn -0.672500 -0.685700 0.278500
vn -0.713900 0.685700 0.142000
vn -0.713900 -0.685700 0.142000
vn -0.727900 0.685700 0.000000
vn -0.727900 -0.685700 0.000000
vn -0.713900 0.685700 -0.142000
vn -0.713900 -0.685700 -0.142000
vn -0.672500 0.685700 -0.278500
vn -0.672500 -0.685700 -0.278500
vn -0.605200 0.685700 -0.404400
vn -0.605200 -0.685700 -0.404400
vn -0.514700 0.685700 -0.514700
vn -0.514700 -0.685700 -0.514700
vn -0.404400 0.685700 -0.605200
vn -0.404400 -0.685700 -0.605200
vn -0.278500 0.685700 -0.672500
vn -0.278500 -0.685700 -0.672500
vn -0.142000 0.685700 -0.713900
vn -0.142000 -0.685700 -0.713900
usemtl Material.002
s 1
f 34//34 35//35 37//36 36//37
f 36//37 37//36 39//38 38//39
f 38//39 39//38 41//40 40//41
f 40//41 41//40 43//42 42//43
f 42//43 43//42 45//44 44//45
f 44//45 45//44 47//46 46//47
f 46//47 47//46 49//48 48//49
f 48//49 49//48 51//50 50//51
f 50//51 51//50 53//52 52//53
f 52//53 53//52 55//54 54//55
f 54//55 55//54 57//56 56//57
f 56//57 57//56 59//58 58//59
f 58//59 59//58 61//60 60//61
f 60//61 61//60 63//62 62//63
f 62//63 63//62 65//64 64//65
f 64//65 65//64 67//66 66//67
f 66//67 67//66 69//68 68//69
f 68//69 69//68 71//70 70//71
f 70//71 71//70 73//72 72//73
f 72//73 73//72 75//74 74//75
f 74//75 75//74 77//76 76//77
f 76//77 77//76 79//78 78//79
f 78//79 79//78 81//80 80//81
f 80//81 81//80 83//82 82//83
f 82//83 83//82 85//84 84//85
f 84//85 85//84 87//86 86//87
f 86//87 87//86 89//88 88//89
f 88//89 89//88 91//90 90//91
f 90//91 91//90 93//92 92//93
f 92//93 93//92 95//94 94//95
f 37//36 35//35 97//96 95//94 93//92 91//90 89//88 87//86 85//84 83//82 81//80 79//78 77//76 75//74 73//72 71//70 69//68 67//66 65//64 63//62 61//60 59//58 57//56 55//54 53//52 51//50 49//48 47//46 45//44 43//42 41//40 39//38
f 96//97 97//96 35//35 34//34
f 94//95 95//94 97//96 96//97
f 34//34 36//37 38//39 40//41 42//43 44//45 46//47 48//49 50//51 52//53 54//55 56//57 58//59 60//61 62//63 64//65 66//67 68//69 70//71 72//73 74//75 76//77 78//79 80//81 82//83 84//85 86//87 88//89 90//91 92//93 94//95 96//97
