# Blender v2.75 (sub 0) OBJ File: ''
# www.blender.org
mtllib scale-arrow.mtl
o Cylinder
v -1.584848 17.674078 1.584848
v -1.584848 20.843775 1.584848
v -1.584848 17.674078 -1.584848
v -1.584848 20.843775 -1.584848
v 1.584848 17.674078 1.584848
v 1.584848 20.843775 1.584848
v 1.584848 17.674078 -1.584848
v 1.584848 20.843775 -1.584848
v 0.000000 0.089891 -1.000000
v 0.000000 17.846678 -0.999999
v 0.195090 17.846678 -0.980784
v 0.195090 0.089891 -0.980785
v 0.382683 17.846678 -0.923879
v 0.382683 0.089891 -0.923880
v 0.555570 17.846678 -0.831469
v 0.555570 0.089891 -0.831470
v 0.707107 17.846678 -0.707106
v 0.707107 0.089891 -0.707107
v 0.831470 17.846678 -0.555569
v 0.831470 0.089891 -0.555570
v 0.923880 17.846678 -0.382682
v 0.923880 0.089891 -0.382683
v 0.980785 17.846678 -0.195089
v 0.980785 0.089891 -0.195090
v 1.000000 17.846678 0.000001
v 1.000000 0.089891 0.000000
v 0.980785 17.846678 0.195091
v 0.980785 0.089891 0.195090
v 0.923880 17.846678 0.382684
v 0.923880 0.089891 0.382683
v 0.831470 17.846678 0.555571
v 0.831470 0.089891 0.555570
v 0.707107 17.846678 0.707108
v 0.707107 0.089891 0.707107
v 0.555570 17.846678 0.831471
v 0.555570 0.089891 0.831470
v 0.382683 17.846678 0.923881
v 0.382683 0.089891 0.923880
v 0.195090 17.846678 0.980786
v 0.195090 0.089891 0.980785
v 0.000000 17.846678 1.000001
v 0.000000 0.089891 1.000000
v -0.195091 17.846678 0.980786
v -0.195091 0.089891 0.980785
v -0.382684 17.846678 0.923880
v -0.382684 0.089891 0.923879
v -0.555571 17.846678 0.831470
v -0.555571 0.089891 0.831469
v -0.707107 17.846678 0.707107
v -0.707107 0.089891 0.707106
v -0.831470 17.846678 0.555571
v -0.831470 0.089891 0.555570
v -0.923880 17.846678 0.382684
v -0.923880 0.089891 0.382683
v -0.980785 17.846678 0.195090
v -0.980785 0.089891 0.195089
v -1.000000 17.846678 -0.000000
v -1.000000 0.089891 -0.000001
v -0.980785 17.846678 -0.195090
v -0.980785 0.089891 -0.195091
v -0.923879 17.846678 -0.382683
v -0.923879 0.089891 -0.382684
v -0.831469 17.846678 -0.555570
v -0.831469 0.089891 -0.555571
v -0.707106 17.846678 -0.707107
v -0.707106 0.089891 -0.707108
v -0.555569 17.846678 -0.831469
v -0.555569 0.089891 -0.831470
v -0.382682 17.846678 -0.923879
v -0.382682 0.089891 -0.923880
v -0.195089 17.846678 -0.980785
v -0.195089 0.089891 -0.980786
vn -1.000000 0.000000 0.000000
vn 0.000000 0.000000 -1.000000
vn 1.000000 0.000000 0.000000
vn 0.000000 0.000000 1.000000
vn 0.000000 -1.000000 0.000000
vn 0.000000 1.000000 0.000000
vn 0.000000 -0.685700 -0.727900
vn 0.000000 0.685700 -0.727900
vn 0.142000 0.685700 -0.713900
vn 0.142000 -0.685700 -0.713900
vn 0.278500 0.685700 -0.672500
vn 0.278500 -0.685700 -0.672500
vn 0.404400 0.685700 -0.605200
vn 0.404400 -0.685700 -0.605200
vn 0.514700 0.685700 -0.514700
vn 0.514700 -0.685700 -0.514700
vn 0.605200 0.685700 -0.404400
vn 0.605200 -0.685700 -0.404400
vn 0.672500 0.685700 -0.278500
vn 0.672500 -0.685700 -0.278500
vn 0.713900 0.685700 -0.142000
vn 0.713900 -0.685700 -0.142000
vn 0.727900 0.685700 -0.000000
vn 0.727900 -0.685700 -0.000000
vn 0.713900 0.685700 0.142000
vn 0.713900 -0.685700 0.142000
vn 0.672500 0.685700 0.278500
vn 0.672500 -0.685700 0.278500
vn 0.605200 0.685700 0.404400
vn 0.605200 -0.685700 0.404400
vn 0.514700 0.685700 0.514700
vn 0.514700 -0.685700 0.514700
vn 0.404400 0.685700 0.605200
vn 0.404400 -0.685700 0.605200
vn 0.278500 0.685700 0.672500
vn 0.278500 -0.685700 0.672500
vn 0.142000 0.685700 0.713900
vn 0.142000 -0.685700 0.713900
vn 0.000000 0.685700 0.727900
vn 0.000000 -0.685700 0.727900
vn -0.142000 0.685700 0.713900
vn -0.142000 -0.685700 0.713900
vn -0.278600 0.685700 0.672500
vn -0.278600 -0.685700 0.672500
vn -0.404400 0.685700 0.605200
vn -0.404400 -0.685700 0.605200
vn -0.514700 0.685700 0.514700
vn -0.514700 -0.685700 0.514700
vn -0.605200 0.685700 0.404400
vn -0.605200 -0.685700 0.404400
vn -0.672500 0.685700 0.278500
vn -0.672500 -0.685700 0.278500
vn -0.713900 0.685700 0.142000
vn -0.713900 -0.685700 0.142000
vn -0.727900 0.685700 -0.000000
vn -0.727900 -0.685700 -0.000000
vn -0.713900 0.685700 -0.142000
vn -0.713900 -0.685700 -0.142000
vn -0.672500 0.685700 -0.278600
vn -0.672500 -0.685700 -0.278600
vn -0.605200 0.685700 -0.404400
vn -0.605200 -0.685700 -0.404400
vn -0.514700 0.685700 -0.514700
vn -0.514700 -0.685700 -0.514700
vn -0.404400 0.685700 -0.605200
vn -0.404400 -0.685700 -0.605200
vn -0.278600 0.685700 -0.672500
vn -0.278600 -0.685700 -0.672500
vn -0.142000 0.685700 -0.713900
vn -0.142000 -0.685700 -0.713900
usemtl Material.002
s off
f 2//1 4//1 3//1 1//1
f 4//2 8//2 7//2 3//2
f 8//3 6//3 5//3 7//3
f 6//4 2//4 1//4 5//4
f 1//5 3//5 7//5 5//5
f 6//6 8//6 4//6 2//6
s 1
f 9//7 10//8 11//9 12//10
f 12//10 11//9 13//11 14//12
f 14//12 13//11 15//13 16//14
f 16//14 15//13 17//15 18//16
f 18//16 17//15 19//17 20//18
f 20//18 19//17 21//19 22//20
f 22//20 21//19 23//21 24//22
f 24//22 23//21 25//23 26//24
f 26//24 25//23 27//25 28//26
f 28//26 27//25 29//27 30//28
f 30//28 29//27 31//29 32//30
f 32//30 31//29 33//31 34//32
f 34//32 33//31 35//33 36//34
f 36//34 35//33 37//35 38//36
f 38//36 37//35 39//37 40//38
f 40//38 39//37 41//39 42//40
f 42//40 41//39 43//41 44//42
f 44//42 43//41 45//43 46//44
f 46//44 45//43 47//45 48//46
f 48//46 47//45 49//47 50//48
f 50//48 49//47 51//49 52//50
f 52//50 51//49 53//51 54//52
f 54//52 53//51 55//53 56//54
f 56//54 55//53 57//55 58//56
f 58//56 57//55 59//57 60//58
f 60//58 59//57 61//59 62//60
f 62//60 61//59 63//61 64//62
f 64//62 63//61 65//63 66//64
f 66//64 65//63 67//65 68//66
f 68//66 67//65 69//67 70//68
f 11//9 10//8 71//69 69//67 67//65 65//63 63//61 61//59 59//57 57//55 55//53 53//51 51//49 49//47 47//45 45//43 43//41 41//39 39//37 37//35 35//33 33//31 31//29 29//27 27//25 25//23 23//21 21//19 19//17 17//15 15//13 13//11
f 72//70 71//69 10//8 9//7
f 70//68 69//67 71//69 72//70
f 9//7 12//10 14//12 16//14 18//16 20//18 22//20 24//22 26//24 28//26 30//28 32//30 34//32 36//34 38//36 40//38 42//40 44//42 46//44 48//46 50//48 52//50 54//52 56//54 58//56 60//58 62//60 64//62 66//64 68//66 70//68 72//70
