<?xml version="1.0" encoding="UTF-8" standalone="no"?>
<svg
   xmlns:dc="http://purl.org/dc/elements/1.1/"
   xmlns:cc="http://creativecommons.org/ns#"
   xmlns:rdf="http://www.w3.org/1999/02/22-rdf-syntax-ns#"
   xmlns:svg="http://www.w3.org/2000/svg"
   xmlns="http://www.w3.org/2000/svg"
   xmlns:sodipodi="http://sodipodi.sourceforge.net/DTD/sodipodi-0.dtd"
   xmlns:inkscape="http://www.inkscape.org/namespaces/inkscape"
   version="1.0"
   width="55.000000pt"
   height="55.000000pt"
   viewBox="0 0 55.000000 55.000000"
   preserveAspectRatio="xMidYMid meet"
   id="svg2"
   inkscape:version="0.48.4 r9939"
   sodipodi:docname="maratis.svg"
   inkscape:export-filename="/home/yannick/Projekte/Build/MaratisManagerDeb/maratis.png"
   inkscape:export-xdpi="90"
   inkscape:export-ydpi="90">
  <defs
     id="defs14" />
  <sodipodi:namedview
     pagecolor="#ffffff"
     bordercolor="#666666"
     borderopacity="1"
     objecttolerance="10"
     gridtolerance="10"
     guidetolerance="10"
     inkscape:pageopacity="0"
     inkscape:pageshadow="2"
     inkscape:window-width="1615"
     inkscape:window-height="1026"
     id="namedview12"
     showgrid="false"
     inkscape:zoom="3.4327273"
     inkscape:cx="1.7843488"
     inkscape:cy="0.16537425"
     inkscape:window-x="1345"
     inkscape:window-y="24"
     inkscape:window-maximized="1"
     inkscape:current-layer="svg2" />
  <metadata
     id="metadata4">
Created by potrace 1.11, written by Peter Selinger 2001-2013
<rdf:RDF>
  <cc:Work
     rdf:about="">
    <dc:format>image/svg+xml</dc:format>
    <dc:type
       rdf:resource="http://purl.org/dc/dcmitype/StillImage" />
    <dc:title></dc:title>
  </cc:Work>
</rdf:RDF>
</metadata>
  <g
     transform="translate(0.000000,55.000000) scale(0.100000,-0.100000)"
     fill="#000000"
     stroke="none"
     id="g6">
    <path
       d="M0 275 l0 -275 275 0 275 0 0 275 0 275 -275 0 -275 0 0 -275z m435 79 c-33 -62 -60 -91 -107 -115 -21 -11 -38 -27 -38 -36 0 -26 -31 -53 -61 -53 -31 0 -79 49 -79 80 0 32 72 100 106 100 67 0 105 14 147 51 23 20 46 34 50 30 4 -5 -4 -30 -18 -57z"
       id="path8" />
    <path
       d="M370 325 c-14 -8 -46 -14 -72 -15 -88 0 -153 -87 -94 -125 19 -13 29 -14 45 -5 21 11 29 40 11 40 -5 0 -10 7 -10 15 0 9 9 15 25 15 37 0 80 25 105 60 24 34 24 34 -10 15z"
       id="path10" />
  </g>
  <path
     style="fill:#2a75b8;fill-opacity:0"
     d="m 0,34.462394 0,-34.22934315 34.375,0 34.375,0 0,34.22934315 0,34.229343 -34.375,0 -34.375,0 0,-34.229343 z m 31.243971,15.169644 c 2.445516,-0.87272 4.713733,-3.381955 5.043214,-5.579106 0.264347,-1.762794 1.635367,-3.102819 5.528796,-5.403809 5.413993,-3.199633 8.879882,-6.99974 12.453512,-13.65442 2.189944,-4.078024 3.194032,-7.865466 2.085214,-7.865466 -0.968093,0 -2.906706,1.275303 -7.265774,4.779744 -4.567686,3.672155 -9.76892,5.416231 -16.152439,5.416231 -1.682263,0 -2.279669,0.152226 -3.984482,1.015298 -3.851536,1.94986 -8.053817,6.059185 -9.643135,9.429825 -1.132784,2.40242 -0.715349,4.307214 1.623447,7.40795 1.181917,1.566967 3.796616,3.728595 5.305323,4.386025 1.254665,0.546729 3.576067,0.578135 5.006324,0.06773 l 0,0 z"
     id="path2991"
     inkscape:connector-curvature="0"
     transform="scale(0.8,0.8)" />
  <path
     style="fill:#2a75b8;fill-opacity:0"
     d="m 0.20391949,34.462394 0,-34.22934315 34.22934351,0 34.229343,0 0,34.22934315 0,34.229343 -34.229343,0 -34.22934351,0 0,-34.229343 z M 31.665784,49.442704 c 2.372393,-1.071663 4.661017,-3.847453 4.661017,-5.653181 0,-1.226914 2.072303,-3.138405 5.744091,-5.298356 4.030691,-2.371071 6.99464,-5.151178 9.461006,-8.87418 3.579133,-5.402733 6.257196,-11.91578 5.084598,-12.365748 -0.71128,-0.272944 -3.114355,1.157512 -6.581234,3.91755 -5.318864,4.234432 -9.010264,5.693511 -15.272454,6.036658 -1.783474,0.09773 -3.718818,0.296638 -4.300764,0.442021 -2.286014,0.571098 -7.287263,4.574961 -9.858022,7.892061 -1.225881,1.58178 -2.120364,3.977278 -1.907937,5.109611 0.34747,1.852177 1.384462,3.632685 3.295699,5.658696 3.26567,3.461783 6.575753,4.534417 9.674,3.134868 z"
     id="path3761"
     inkscape:connector-curvature="0"
     transform="scale(0.8,0.8)" />
  <path
     style="fill:#2a75b8;fill-opacity:1"
     d="m 0.20391949,34.462394 0,-34.22934315 34.22934351,0 34.229343,0 0,34.22934315 0,34.229343 -34.229343,0 -34.22934351,0 0,-34.229343 z M 31.665784,49.442704 c 2.372393,-1.071663 4.661017,-3.847453 4.661017,-5.653181 0,-1.226914 2.072303,-3.138405 5.744091,-5.298356 4.030691,-2.371071 6.99464,-5.151178 9.461006,-8.87418 3.579133,-5.402733 6.257196,-11.91578 5.084598,-12.365748 -0.71128,-0.272944 -3.114355,1.157512 -6.581234,3.91755 -5.318864,4.234432 -9.010264,5.693511 -15.272454,6.036658 -1.783474,0.09773 -3.718818,0.296638 -4.300764,0.442021 -2.286014,0.571098 -7.287263,4.574961 -9.858022,7.892061 -1.225881,1.58178 -2.120364,3.977278 -1.907937,5.109611 0.34747,1.852177 1.384462,3.632685 3.295699,5.658696 3.26567,3.461783 6.575753,4.534417 9.674,3.134868 z"
     id="path3763"
     inkscape:connector-curvature="0"
     transform="scale(0.8,0.8)" />
  <path
     style="fill:#2a75b8;fill-opacity:1"
     d="m 0.20391949,34.462394 0,-34.22934315 34.22934351,0 34.229343,0 0,34.22934315 0,34.229343 -34.229343,0 -34.22934351,0 0,-34.229343 z M 32.980479,48.747097 c 1.838229,-1.266034 2.89413,-2.712965 3.521527,-4.825632 0.503736,-1.696264 1.381181,-2.507697 5.847178,-5.407281 3.831761,-2.4878 7.218946,-5.708056 9.238605,-8.783311 2.828448,-4.30676 5.422275,-9.87339 5.422275,-11.636786 0,-1.564617 -1.889786,-0.999806 -5.255422,1.570715 -7.629942,5.827409 -9.670576,6.696406 -17.560915,7.478261 -4.983317,0.493797 -5.650071,0.787181 -9.736689,4.284327 -3.52929,3.020211 -5.455898,5.769043 -5.799275,8.274255 -0.152076,1.109514 -0.03406,1.613924 0.750445,3.207482 1.15613,2.348433 3.979982,5.275292 6.145627,6.369807 1.38654,0.700755 1.870585,0.794269 3.679239,0.710817 1.870941,-0.08632 2.251883,-0.212648 3.747405,-1.242654 l 0,0 z"
     id="path3765"
     inkscape:connector-curvature="0"
     transform="scale(0.8,0.8)" />
  <path
     style="fill:#2a75b8;fill-opacity:1"
     d="m 27.004767,46.237713 c -1.470883,-0.66504 -3.047012,-2.057884 -3.666274,-3.239931 -1.457326,-2.781741 0.676432,-7.317887 4.697861,-9.98716 2.620517,-1.739399 4.94534,-2.445078 9.594799,-2.912414 5.259496,-0.528654 6.452616,-0.814053 9.299735,-2.224534 1.265908,-0.627139 2.351878,-1.090025 2.413268,-1.028635 0.06139,0.06139 -0.655333,1.144953 -1.592718,2.407919 -3.759642,5.065475 -7.835226,7.540914 -13.387575,8.13138 -2.096167,0.222917 -3.280706,0.968428 -3.280706,2.064772 0,0.782081 1.17485,2.150466 1.84632,2.150466 1.188018,0 0.32428,2.968239 -1.156919,3.975756 -1.081079,0.735355 -2.334893,1.269562 -2.960788,1.261491 -0.272851,-0.0035 -1.086002,-0.273118 -1.807003,-0.59911 z"
     id="path3767"
     inkscape:connector-curvature="0"
     transform="scale(0.8,0.8)" />
  <path
     style="fill:#cbd3b9;fill-opacity:0"
     d="m 27.70681,49.84028 c -1.623678,-0.352532 -3.456714,-1.491523 -5.246015,-3.259707 -2.262116,-2.23542 -3.653385,-4.730144 -3.653385,-6.550989 0,-1.349748 0.959715,-3.197533 2.809069,-5.408432 0.854165,-1.021152 2.891036,-3.015526 3.9278,-3.845849 1.75266,-1.403671 3.638004,-2.512829 5.049235,-2.970494 0.683427,-0.221637 0.758144,-0.230051 2.561089,-0.288425 3.406663,-0.110295 5.563568,-0.385075 7.756223,-0.988106 3.432378,-0.943984 5.873921,-2.322014 9.461904,-5.340387 0.677762,-0.570165 1.547848,-1.275634 1.933524,-1.56771 1.579168,-1.195916 3.241149,-2.160004 3.902049,-2.263513 0.437636,-0.06854 0.498863,0.04348 0.450815,0.82481 -0.09337,1.518319 -1.272708,4.435937 -3.135197,7.756285 -2.079735,3.707646 -3.700759,5.961802 -5.802276,8.0685 -1.705983,1.710189 -3.355701,2.954318 -5.499908,4.147732 -0.520723,0.289822 -1.237384,0.689142 -1.592581,0.887378 -2.607631,1.455324 -4.414743,3.270397 -4.415534,4.434986 -5.82e-4,0.845947 -0.541072,2.227581 -1.222629,3.125319 -0.455775,0.60034 -1.384336,1.487384 -1.981523,1.892926 -1.702878,1.156403 -3.764611,1.679617 -5.30266,1.345676 l 0,0 z m 1.686547,-2.878923 c 0.907922,-0.167838 2.137663,-0.806427 2.884541,-1.497904 1.158744,-1.072793 1.78323,-2.7691 1.340131,-3.64023 -0.168473,-0.331215 -0.645478,-0.610841 -1.043278,-0.611582 -0.648978,-0.0012 -1.262903,-0.867939 -1.26083,-1.780019 0.0016,-0.699218 0.325814,-1.152242 1.078677,-1.507188 0.553061,-0.260748 0.931141,-0.32562 2.473472,-0.424404 0.797147,-0.05106 1.533332,-0.145449 2.067101,-0.265042 3.084526,-0.691097 6.159214,-2.447545 8.643324,-4.937593 0.993756,-0.996132 1.557872,-1.684889 2.542443,-3.104198 1.434438,-2.067815 1.746927,-2.69241 1.34703,-2.69241 -0.207029,0 -0.849085,0.282791 -1.745687,0.768882 -2.3273,1.261739 -2.713638,1.423649 -4.406118,1.846562 -1.815636,0.453687 -4.013119,0.744775 -6.627384,0.877892 -2.694681,0.137212 -4.793916,0.666293 -6.955111,1.752932 -1.692108,0.850785 -2.837773,1.668938 -4.07839,2.912499 -1.471867,1.475363 -2.344321,2.891763 -2.81382,4.56815 -0.175911,0.628103 -0.214638,2.189434 -0.06967,2.808765 0.148106,0.632733 0.525881,1.451401 0.900988,1.952515 0.88451,1.181636 2.883663,2.542506 4.26834,2.905559 0.606415,0.158997 0.88607,0.171845 1.454239,0.06681 l 0,0 z"
     id="path3769"
     inkscape:connector-curvature="0"
     transform="scale(0.8,0.8)" />
  <path
     style="fill:#cbd3b9;fill-opacity:0"
     d="m 27.875747,49.908006 c -0.765661,-0.135178 -1.928585,-0.625371 -2.805594,-1.182606 -2.692206,-1.710579 -5.178794,-4.65026 -5.994201,-7.08643 -0.260814,-0.779227 -0.356848,-1.515336 -0.270354,-2.072295 0.197751,-1.273386 1.090024,-2.898776 2.619085,-4.770998 0.308934,-0.378268 1.487987,-1.682657 1.614774,-1.78643 0.04389,-0.03592 0.546791,-0.04377 2.333312,-0.03641 l 2.277362,0.0094 -0.442508,0.33328 c -2.056172,1.548631 -3.561705,3.497411 -4.198205,5.434207 -0.06836,0.208002 -0.167429,0.568503 -0.22016,0.801112 -0.08736,0.38537 -0.09617,0.495681 -0.09921,1.242246 -0.0036,0.879541 0.02648,1.111552 0.221515,1.709992 0.130768,0.401248 0.455914,1.042902 0.714605,1.410227 0.271867,0.386034 0.915699,1.043092 1.32407,1.351268 0.384305,0.290016 1.33802,0.900784 1.769044,1.132913 1.55732,0.838698 2.787673,0.797844 4.437468,-0.147346 0.552848,-0.316734 0.91944,-0.59491 1.274372,-0.967014 1.094809,-1.147779 1.593818,-2.609387 1.179789,-3.455631 -0.177195,-0.362176 -0.48259,-0.539321 -1.024041,-0.593998 -0.35514,-0.03586 -0.534086,-0.123795 -0.757403,-0.372178 -0.318034,-0.35373 -0.46546,-0.693559 -0.53453,-1.232134 -0.114486,-0.892713 0.386647,-1.540645 1.460307,-1.888086 0.400068,-0.129463 0.820958,-0.185525 1.69326,-0.225539 0.46064,-0.02113 1.038473,-0.06269 1.284075,-0.09236 2.919449,-0.352673 6.173569,-1.890618 8.785032,-4.151935 l 0.3548,-0.307229 1.937392,0 1.937392,0 -0.119246,0.15476 c -0.20467,0.265623 -1.703541,1.738053 -2.181017,2.142541 -1.482061,1.25551 -3.070688,2.327766 -4.824831,3.256556 -1.714218,0.90765 -2.64557,1.519692 -3.714248,2.440831 -0.717159,0.618151 -1.235053,1.236799 -1.504024,1.796628 -0.105659,0.219914 -0.135031,0.33288 -0.160957,0.619041 -0.05763,0.636049 -0.135065,1.061755 -0.262328,1.442075 -0.937016,2.800233 -4.310616,5.171425 -7.32657,5.149606 -0.257791,-0.0019 -0.607996,-0.02798 -0.778232,-0.05804 z"
     id="path3771"
     inkscape:connector-curvature="0"
     transform="scale(0.8,0.8)" />
  <path
     style="fill:#cbd3b9;fill-opacity:1"
     d="m 27.562267,49.764387 c -3.123586,-0.788993 -7.317755,-4.857083 -8.430298,-8.176882 -0.353819,-1.055786 -0.315807,-2.170022 0.109759,-3.217347 1.273577,-3.134294 6.115218,-7.990338 9.857187,-9.88651 1.463574,-0.741639 1.875829,-0.827283 4.598566,-0.955336 4.895057,-0.230218 7.656861,-0.826505 10.778602,-2.327152 1.934111,-0.929743 3.191995,-1.772842 5.899099,-3.953878 1.241724,-1.000421 2.780243,-2.170549 3.418931,-2.600284 1.192675,-0.802482 2.466101,-1.382244 2.707863,-1.232827 0.635504,0.392763 -0.781114,4.493189 -2.816044,8.151088 -2.116992,3.805409 -3.794857,6.125906 -6.062382,8.384309 -1.968408,1.960489 -3.121386,2.845157 -5.332319,4.091433 -3.306809,1.864006 -5.227046,3.3345 -5.799228,4.440978 -0.128098,0.247714 -0.299637,0.86475 -0.381196,1.371188 -0.08156,0.506438 -0.32541,1.285347 -0.541891,1.730905 -0.461626,0.950118 -1.992302,2.542289 -3.019273,3.140574 -1.691626,0.985494 -3.614833,1.386433 -4.987376,1.039741 l 0,0 z m 3.1687,-3.260264 c 1.303753,-0.641877 2.071045,-1.350359 2.592418,-2.393719 0.771864,-1.544638 0.490702,-2.887041 -0.604684,-2.887041 -0.916804,0 -1.669828,-1.492344 -1.224375,-2.426467 0.356958,-0.748551 1.137718,-1.056887 3.119459,-1.231933 2.655109,-0.234527 4.050901,-0.64483 6.44341,-1.894092 3.100089,-1.618727 5.086573,-3.494607 7.548038,-7.127766 1.627762,-2.402602 1.458171,-2.520298 -1.461343,-1.014174 -2.918172,1.505433 -4.937925,1.988621 -10.031508,2.399853 -3.833587,0.309506 -6.159091,0.968891 -8.558928,2.426843 -3.656221,2.221231 -5.830161,5.326713 -5.887122,8.409781 -0.04425,2.395314 1.155834,4.121712 3.872824,5.571287 1.162233,0.620079 1.491697,0.709535 2.44393,0.663578 0.56492,-0.02726 1.109462,-0.181837 1.747881,-0.49615 l 0,0 z"
     id="path3775"
     inkscape:connector-curvature="0"
     transform="scale(0.8,0.8)" />
</svg>
